<?xml version="1.0" standalone="no"?>
<!DOCTYPE svg PUBLIC "-//W3C//DTD SVG 20010904//EN"
 "http://www.w3.org/TR/2001/REC-SVG-20010904/DTD/svg10.dtd">
<svg version="1.0" xmlns="http://www.w3.org/2000/svg"
 width="1000.000000pt" height="1000.000000pt" viewBox="0 0 1000.000000 1000.000000"
 preserveAspectRatio="xMidYMid meet">
<metadata>
Created by potrace 1.11, written by Peter Selinger 2001-2013
</metadata>
<g transform="translate(0.000000,1000.000000) scale(0.100000,-0.100000)"
fill="#000000" stroke="none">
<path d="M2837 9793 c-2 -2 -22 -6 -43 -8 -64 -8 -86 -12 -139 -25 -232 -57
-466 -185 -625 -342 -80 -80 -130 -136 -130 -147 0 -5 -4 -11 -8 -13 -39 -15
-200 -328 -218 -422 -2 -11 -11 -49 -19 -83 -9 -34 -15 -65 -14 -70 1 -4 0
-10 -1 -13 -9 -22 -16 -213 -11 -295 3 -43 25 -173 35 -210 23 -83 31 -107 48
-150 182 -448 563 -752 1048 -836 182 -31 358 -23 568 25 55 13 78 19 87 25 6
3 17 6 25 8 13 2 43 14 82 34 10 5 24 9 32 9 7 0 19 7 26 15 7 8 18 15 25 15
28 0 224 130 293 194 75 70 172 174 172 185 0 3 10 17 23 31 63 68 175 295
202 410 29 121 36 158 41 221 7 88 7 180 -1 269 -6 74 -52 269 -67 288 -6 6
-8 12 -4 12 4 0 0 14 -9 30 -9 17 -12 30 -8 30 5 0 3 4 -3 8 -6 4 -23 33 -37
65 -15 32 -40 79 -57 103 -16 25 -30 47 -30 50 0 5 -14 23 -41 54 -9 10 -21
25 -26 34 -12 21 -147 159 -179 183 -14 10 -39 30 -56 46 -18 15 -37 27 -44
27 -7 0 -14 4 -16 9 -3 8 -89 65 -98 64 -3 -1 -17 8 -31 18 -14 10 -29 16 -33
12 -3 -3 -6 -1 -6 5 0 7 -5 12 -10 12 -6 0 -30 9 -52 20 -23 11 -49 20 -58 20
-9 0 -21 5 -28 12 -7 7 -12 8 -12 4 0 -5 -6 -4 -13 2 -7 6 -24 13 -37 15 -14
3 -44 10 -68 16 -24 7 -57 14 -75 16 -18 3 -43 7 -57 11 -28 7 -337 14 -343 7z"/>
<path d="M7969 9410 c0 -3 -2 -12 -4 -20 -4 -20 -15 -91 -20 -132 -4 -30 -8
-60 -21 -140 -3 -18 0 -28 8 -29 7 0 103 -1 212 -1 l199 -1 -44 -41 c-25 -22
-65 -57 -89 -77 -25 -20 -55 -45 -66 -55 -12 -11 -44 -38 -70 -61 -27 -22 -64
-54 -82 -70 -18 -15 -46 -39 -64 -53 -17 -14 -40 -34 -52 -45 -22 -20 -142
-123 -161 -138 -5 -4 -22 -17 -36 -30 -34 -29 -198 -170 -240 -205 -8 -6 -28
-24 -46 -39 -97 -84 -132 -114 -169 -147 -23 -20 -48 -36 -55 -35 -8 0 -59 56
-114 125 -55 69 -107 133 -115 142 -8 9 -26 31 -38 47 -42 54 -87 109 -109
132 -13 13 -23 28 -23 33 0 4 -3 10 -7 12 -5 2 -28 27 -51 56 -24 28 -47 52
-50 52 -4 0 -19 -10 -33 -23 -36 -30 -114 -96 -153 -128 -17 -15 -101 -85
-186 -155 -85 -71 -162 -136 -172 -144 -9 -8 -33 -28 -53 -45 -20 -16 -47 -39
-60 -50 -13 -11 -40 -33 -60 -50 -21 -16 -45 -37 -55 -45 -37 -32 -110 -93
-235 -197 -173 -144 -175 -146 -189 -158 -6 -6 -65 -55 -131 -110 -66 -54
-127 -106 -137 -114 -9 -9 -29 -26 -45 -38 -16 -12 -42 -34 -57 -48 -15 -14
-29 -25 -32 -25 -3 0 -15 -10 -28 -22 -13 -13 -40 -36 -60 -53 -70 -56 -69
-55 -51 -74 9 -9 54 -64 101 -124 92 -117 87 -115 148 -59 19 17 38 32 41 32
3 0 16 10 29 23 24 23 67 59 125 105 19 15 68 56 110 90 113 95 112 94 166
137 27 22 56 47 65 55 9 8 34 29 55 45 21 17 55 44 74 61 20 18 101 85 181
150 80 65 150 123 156 129 6 5 25 21 43 35 18 13 43 33 55 45 12 11 42 36 66
55 40 32 93 76 224 185 26 22 51 41 56 43 7 3 16 -7 86 -94 17 -22 87 -107
155 -190 68 -83 138 -167 154 -188 33 -42 53 -66 92 -109 l25 -29 31 29 c43
39 48 43 97 83 24 19 55 46 69 60 14 14 51 45 81 70 53 43 101 84 124 105 16
15 127 109 154 131 13 11 38 33 56 49 18 17 53 46 77 67 24 20 55 46 69 58 14
11 47 40 74 63 27 23 60 52 73 64 13 11 42 36 65 55 46 37 112 94 140 121 10
9 20 17 23 17 2 0 15 10 27 23 13 12 50 45 82 72 32 28 64 55 70 60 6 6 37 31
68 58 l56 47 0 -172 -1 -172 162 -1 c89 0 165 2 169 5 12 8 9 910 -3 911 -32
5 -925 4 -926 -1z"/>
<path d="M8457 7921 c-2 -3 -3 -370 -2 -816 l1 -810 223 0 c123 0 227 3 233 6
10 7 14 61 5 76 -3 5 -2 15 3 23 5 9 5 19 -2 27 -7 9 -7 13 0 13 7 0 8 10 3
28 -4 15 -5 38 -1 52 3 13 3 46 0 72 -4 28 -2 48 3 48 5 0 4 6 -2 14 -8 9 -8
16 -2 20 5 4 6 18 2 34 -4 15 -5 38 -1 52 3 13 3 46 0 72 -4 28 -2 48 3 48 5
0 4 6 -2 14 -8 9 -8 16 -2 20 5 4 6 18 2 34 -4 15 -5 38 -1 52 3 13 3 46 0 72
-4 28 -2 48 3 48 5 0 4 6 -2 14 -8 9 -8 16 -2 20 5 4 6 18 2 34 -4 15 -5 38
-1 52 3 13 3 46 0 72 -4 28 -2 48 3 48 5 0 4 6 -2 14 -8 9 -8 16 -2 20 5 4 6
18 2 34 -4 15 -5 38 -1 52 3 13 3 46 0 72 -4 28 -2 48 3 48 5 0 4 6 -2 14 -8
9 -8 16 -2 20 5 4 6 18 2 34 -4 15 -5 38 -1 52 3 13 3 46 0 72 -4 28 -2 48 3
48 5 0 5 6 -2 13 -6 8 -7 17 -2 23 5 5 5 19 0 31 -8 22 -10 22 -234 21 -124 0
-227 -3 -228 -7z"/>
<path d="M7631 6893 c0 -326 4 -593 7 -594 28 -4 430 -4 442 0 14 5 16 76 15
597 l0 592 -232 -1 -232 0 0 -594z"/>
<path d="M6022 7201 c-11 -6 -13 -91 -13 -422 0 -228 0 -428 0 -444 l1 -30
230 0 230 -1 0 41 c1 22 1 220 1 440 l1 400 -22 11 c-13 7 -35 9 -55 4 -18 -4
-39 -4 -46 1 -7 4 -20 4 -30 -1 -9 -5 -19 -7 -22 -3 -8 7 -97 10 -97 3 0 -7
-89 -4 -96 3 -4 3 -16 2 -29 -3 -13 -5 -26 -5 -31 0 -5 5 -15 6 -22 1z"/>
<path d="M6849 6987 c-1 -27 -1 -646 0 -667 1 -13 33 -15 231 -15 l230 0 0 40
c1 53 1 603 0 637 l0 26 -230 1 c-229 0 -230 0 -231 -22z"/>
<path d="M2508 6775 c-2 -2 -46 -6 -98 -9 -122 -7 -150 -11 -235 -30 -106 -25
-105 -25 -144 -38 -20 -7 -38 -13 -41 -13 -3 -1 -18 -7 -33 -13 -16 -7 -30
-12 -33 -12 -26 0 -258 -129 -314 -175 -87 -71 -208 -217 -246 -297 -10 -21
-21 -38 -26 -38 -4 0 -8 -5 -8 -11 0 -6 -14 -40 -30 -74 -46 -96 -87 -217
-119 -350 -41 -168 -47 -203 -66 -355 -3 -30 -8 -66 -10 -80 -19 -124 -35
-626 -21 -649 4 -6 2 -11 -4 -11 -6 0 -9 -4 -6 -9 4 -5 8 -67 11 -138 6 -157
13 -275 21 -351 3 -31 7 -82 9 -112 4 -58 9 -103 25 -240 6 -47 12 -103 14
-125 3 -22 7 -56 10 -75 7 -39 15 -100 21 -145 13 -97 22 -161 31 -205 2 -14
7 -38 9 -55 3 -16 8 -46 11 -65 3 -19 8 -48 10 -64 2 -15 5 -35 8 -45 3 -9 8
-34 11 -56 3 -23 8 -52 11 -65 6 -30 22 -115 28 -153 3 -15 7 -35 10 -45 3 -9
8 -35 11 -57 4 -22 8 -44 9 -50 11 -39 16 -64 20 -90 3 -16 18 -86 34 -155
l28 -125 1747 -1 c961 -1 1749 2 1752 6 2 3 7 22 10 41 3 19 7 45 10 59 2 14
7 54 10 90 4 36 8 72 10 80 2 8 7 44 10 80 4 36 8 76 10 90 2 14 6 48 10 75 3
28 8 57 10 65 2 8 7 47 11 85 3 39 8 79 10 90 2 11 6 45 9 75 l5 55 -52 37
c-29 21 -69 51 -88 68 -19 16 -38 30 -42 30 -4 0 -13 6 -20 13 -7 6 -31 25
-53 41 -22 17 -42 33 -45 36 -3 3 -30 23 -60 45 -30 22 -57 42 -60 45 -6 7
-59 47 -195 150 -60 45 -112 85 -115 89 -12 15 -90 71 -99 71 -5 0 -11 4 -13
9 -1 4 -111 91 -243 192 -132 101 -242 186 -245 189 -3 3 -21 17 -40 30 -19
13 -42 30 -50 37 -8 7 -62 50 -120 95 -58 45 -130 101 -160 125 -65 50 -62 49
-120 93 -24 19 -50 40 -56 45 -6 6 -26 21 -44 35 -18 14 -38 30 -44 35 -6 6
-27 22 -48 37 -20 15 -42 33 -50 40 -7 7 -38 32 -68 55 -30 23 -68 54 -85 67
-16 14 -34 29 -40 34 -44 35 -181 148 -185 152 -3 3 -34 30 -70 60 -66 55
-160 147 -160 156 0 10 26 31 56 47 59 31 136 12 218 -54 68 -54 316 -243 334
-254 9 -5 30 -22 47 -37 16 -16 35 -28 42 -28 6 0 13 -4 15 -8 2 -4 95 -77
208 -162 113 -85 207 -157 210 -160 3 -3 50 -39 104 -79 55 -41 107 -80 115
-87 18 -15 156 -118 321 -242 63 -48 117 -89 120 -92 3 -3 21 -17 40 -30 19
-13 37 -27 40 -30 3 -3 27 -21 53 -40 26 -19 62 -47 80 -62 18 -15 35 -28 39
-28 4 0 13 -6 20 -13 7 -7 31 -26 53 -42 22 -17 42 -32 45 -35 8 -9 281 -214
299 -225 9 -5 18 -13 21 -16 3 -3 32 -25 65 -50 33 -24 66 -50 75 -56 8 -7 41
-33 74 -57 l58 -43 127 64 c69 36 180 93 246 128 66 34 215 111 330 170 116
60 213 113 217 119 4 6 8 7 8 3 0 -5 15 0 33 11 17 11 131 70 252 132 349 180
381 196 396 206 8 4 20 9 28 11 8 1 17 5 20 10 5 7 54 33 275 144 33 17 68 35
76 40 8 4 53 28 100 52 105 54 413 213 540 280 146 76 215 134 298 252 16 23
63 127 64 142 0 2 5 24 12 50 56 213 -35 474 -214 615 -107 83 -222 127 -350
133 -162 7 -200 -7 -638 -235 -179 -94 -324 -169 -472 -245 -63 -33 -118 -64
-122 -70 -4 -5 -8 -7 -8 -3 0 3 -44 -17 -97 -46 -54 -28 -114 -60 -133 -69
-19 -10 -43 -22 -52 -27 -23 -13 -32 -17 -173 -90 -160 -83 -342 -178 -382
-201 -19 -11 -40 -19 -48 -19 -8 0 -15 -3 -15 -8 0 -4 -32 -23 -70 -41 l-70
-34 -20 21 c-11 12 -20 24 -20 26 0 3 -7 14 -15 23 -8 10 -41 54 -74 98 -33
44 -64 85 -68 90 -5 6 -40 48 -78 95 -62 77 -155 188 -180 216 -5 6 -44 49
-85 95 -174 193 -516 523 -655 630 -5 5 -26 21 -45 37 -229 187 -524 368 -805
493 -109 48 -290 104 -400 123 -13 3 -28 7 -33 10 -8 5 -102 15 -207 22 -33 2
-68 6 -77 8 -9 2 -18 2 -20 1z"/>
<path d="M5200 6740 c-4 -3 -7 -104 -6 -225 l1 -220 215 -1 c118 0 222 3 231
7 13 7 15 37 15 226 l-1 218 -224 0 c-122 0 -226 -2 -231 -5z"/>
</g>
</svg>
