<svg
  xmlns="http://www.w3.org/2000/svg"
  xmlns:xlink="http://www.w3.org/1999/xlink"
  version="1.1"
  x="0px"
  y="0px"
  viewBox="0 0 100 125"
  style="enable-background:new 0 0 100 100;"
  xml:space="preserve"
>
  <ellipse cx="24.8" cy="19" rx="17" ry="16.5" />
  <path
    d="M88.5,55.6c-2-3.7-6.6-5.2-10.3-3.2L53.6,65.2C50.8,61.3,29.2,31.4,9,43c-12.7,7.3-7.4,38.9-3.8,54.6H49  l1.4-11.1c-0.8-0.6-34-25.7-33.4-26.5c0.6-0.8,1.8-1,2.7-0.4l31.7,24l34-17.6C89,64,90.5,59.4,88.5,55.6z"
  />
  <polygon
    points="70.3,22.2 76.6,29.9 94.6,14.5 94.6,18.8 98.8,18.8 98.8,7.3 87.1,7.3 86.5,11.4 91.8,11.4   91.5,11.7 77.1,24 70.8,16.3 48.9,34.6 51.4,37.8 "
  />
  <rect x="62.6" y="35" width="5.8" height="11.2" />
  <rect x="73.1" y="37.4" width="5.8" height="8.8" />
  <rect x="52.4" y="40.7" width="5.8" height="5.6" />
  <rect x="82.9" y="31.4" width="5.8" height="14.9" />
  <rect x="93.2" y="25.9" width="5.8" height="20.4" />
</svg>
